# xmcd
#
# Track frame offsets: 
#        150
#        11937
#        28432
#        41382
#        51732
#        63575
#        75502
#        89817
#        107025
#        121695
#        134950
#        143942
#        157525
#        173055
#        187865
#        202400
#        214260
#        225865
#        239802
#        252030
#        261920
#        274112
#        288467
#        300652
#
# Disc length: 4204 seconds
#
# Revision: 1
# Processed by: cddbd v1.5.2PL0 Copyright (c) Steve Scherf et al.
# Submitted via: ExactAudioCopy v1.3
#
DISCID=6c106a18
DTITLE=Various Blue Grass Artists - Memories of Mother
DYEAR=1997
DGENRE=bluegrass
TTITLE0=Always Be Kind To Your Mother - Scott Brannon
TTITLE1=Memories of Mother - James King and Danny Paisley
TTITLE2=Mothers Not Dead - Warrior River Boys and Scott Brannon
TTITLE3=If I Could Hear My Mother Pray Again - Stanley Bros.
TTITLE4=I Heard My Mother Call My Name In Prayer - James King and Danny 
TTITLE4=Paisley
TTITLE5=A Beautiful Picture - David Davis and Scott Brannon
TTITLE6=Picture On The Wall - Don Reno and Charlie Moore
TTITLE7=Dreaming Of A Little Cabin - Don Reno and Bill Harrell
TTITLE8=Mother's Bible - Warrior River Boys and Scott Brannon
TTITLE9=Mother's Footsteps Guide Me On  - James King, Danny Paisley, M
TTITLE9=ichael Paisley, Bobby Lundy, T.J. Lundy, John Glik
TTITLE10=Hold Fast To The Right - Carter and Ralph Stanley, George Shu
TTITLE10=ffler
TTITLE11=Mother No Longer Awaits Me At Home - Bob and Danny Paisley and 
TTITLE11=the Southern Grass
TTITLE12=A Vision of Mother - James King Band
TTITLE13=The Sweetest Gift - David Davis and Scott Brannon
TTITLE14=Mom's Faded Old Sunbonnet - Don Reno
TTITLE15=No Telephone in Heaven - Clyde Moody
TTITLE16=Talking To Mother - Scott Brannon
TTITLE17=The Evening Train - Bob and Danny Paisley and the Southern Gras
TTITLE17=s
TTITLE18=Baggage Coach Ahead - Bill Harrell
TTITLE19=Take A Message To Mother - Scott Brannon
TTITLE20=Shake My Mother's Hand Warrior - River Boys
TTITLE21=Shake Hands With Mother Again - Carter and Ralph Stanley
TTITLE22=The Mother's Watch - Ray Davis, Don Reno, Chubby Wise, Buck R
TTITLE22=yan, Bill Harrell, Ed Ferris
TTITLE23=Only One Step More - David Davis and Scott Brannon
EXTD=
EXTT0=
EXTT1=
EXTT2=
EXTT3=
EXTT4=
EXTT5=
EXTT6=
EXTT7=
EXTT8=
EXTT9=
EXTT10=
EXTT11=
EXTT12=
EXTT13=
EXTT14=
EXTT15=
EXTT16=
EXTT17=
EXTT18=
EXTT19=
EXTT20=
EXTT21=
EXTT22=
EXTT23=
PLAYORDER=
